<svg role="img" viewBox="0 0 24 24" xmlns="http://www.w3.org/2000/svg"><title>Movey</title><path d="M12 0C5.37 0 0 5.37 0 12s5.37 12 12 12 12-5.37 12-12S18.63 0 12 0Zm7.39 14.77c-1.15 0-1.74-.72-2.23-1.3-.49-.59-.81-.95-1.46-.95s-.99.35-1.46.95c-.47.58-1.07 1.3-2.23 1.3s-1.74-.72-2.23-1.3c-.49-.59-.81-.95-1.46-.95s-.99.35-1.46.95c-.47.58-1.07 1.3-2.23 1.3v-3.05c.65 0 .99-.35 1.46-.95.47-.58 1.07-1.3 2.23-1.3s1.74.72 2.23 1.3c.49.59.81.95 1.46.95s.99-.35 1.46-.95c.47-.58 1.07-1.3 2.23-1.3s1.74.72 2.23 1.3c.49.59.81.95 1.46.95v3.05Z"/></svg>